<?xml version="1.0"?>
<svg xmlns="http://www.w3.org/2000/svg" xmlns:xlink="http://www.w3.org/1999/xlink" version="1.1" id="Capa_1" x="0px" y="0px" viewBox="0 0 511.2 511.2" style="enable-background:new 0 0 511.2 511.2;" xml:space="preserve" width="512px" height="512px" class=""><g><path style="fill:#F27E20" d="M155.296,333.28C138.432,311.616,128,284.736,128,255.2c0-65.088,49.024-118.4,112-126.368V0.032  C106.304,8.352,0,119.456,0,255.232c0,64.832,24.416,123.936,64.288,169.088L155.296,333.28z" data-original="#2196F3" class="" data-old_color="#2196F3"/><path style="fill:#EDC560" d="M272,128.832c57.664,7.296,103.072,52.704,110.368,110.368h128.8  C503.168,110.816,400.352,8,271.968,0v128.832H272z" data-original="#FFC107" class="" data-old_color="#FFC107"/><path style="fill:#767AE6" d="M382.368,271.2c-7.968,62.976-61.28,112-126.368,112c-29.504,0-56.384-10.464-78.08-27.296  l-91.008,91.008C132.064,486.784,191.168,511.2,256,511.2c135.744,0,246.848-106.304,255.2-240H382.368z" data-original="#4CAF50" class="active-path" data-old_color="#4CAF50"/></g> </svg>
