<?xml version="1.0"?>
<svg xmlns="http://www.w3.org/2000/svg" xmlns:xlink="http://www.w3.org/1999/xlink" version="1.1" id="Capa_1" x="0px" y="0px" viewBox="0 0 480 480" style="enable-background:new 0 0 480 480;" xml:space="preserve" width="512px" height="512px" class=""><g><path style="fill:#E1BBC7" d="M368,272h64c8.832,0,16,7.168,16,16v144c0,8.832-7.168,16-16,16h-64c-8.832,0-16-7.168-16-16V288  C352,279.168,359.168,272,368,272z" data-original="#64B5F6" class="active-path" data-old_color="#64B5F6"/><path style="fill:#DF7C9A" d="M208,144h64c8.832,0,16,7.168,16,16v272c0,8.832-7.168,16-16,16h-64c-8.832,0-16-7.168-16-16V160  C192,151.168,199.168,144,208,144z" data-original="#2196F3" class="" data-old_color="#2196F3"/><path style="fill:#DA4F7A" d="M48,16h64c8.832,0,16,7.168,16,16v400c0,8.832-7.168,16-16,16H48c-8.832,0-16-7.168-16-16V32  C32,23.168,39.168,16,48,16z" data-original="#1E88E5" class="" data-old_color="#1E88E5"/><path style="fill:#455A64" d="M16,464h448c8.832,0,16-7.168,16-16s-7.168-16-16-16H16c-8.832,0-16,7.168-16,16S7.168,464,16,464z" data-original="#455A64" class="" data-old_color="#455A64"/></g> </svg>
